<svg id="Слой_1" data-name="Слой 1" xmlns="http://www.w3.org/2000/svg" xmlns:xlink="http://www.w3.org/1999/xlink" viewBox="0 0 355.23 92.71"><defs><clipPath id="clip-path" transform="translate(-22.83 -33.96)"><rect width="408.22" height="160.63" style="fill:none"/></clipPath></defs><title>Logo_dodoc</title><g style="clip-path:url(#clip-path)"><path d="M113.39,80.31A43.71,43.71,0,1,1,69.69,36.61a43.71,43.71,0,0,1,43.71,43.71" transform="translate(-22.83 -33.96)" style="fill:#fff"/><path d="M90.8,73.32H76.14V58.74a3.44,3.44,0,0,0-3.67-3.21H65.91a3.45,3.45,0,0,0-3.67,3.21V73.32H59.51q3.28,3.27,6.85,6.4c3.2,2.79,6.47,5.37,9.78,7.78V87.3H90.8A3.5,3.5,0,0,0,94,83.64V77.07a3.52,3.52,0,0,0-3.21-3.74" transform="translate(-22.83 -33.96)" style="fill:#5ca244"/><path d="M69.19,34A46.18,46.18,0,0,0,38.42,45.65c1.65,2.93,3.44,5.85,5.4,8.74A36.27,36.27,0,0,1,99.05,100.9a96.37,96.37,0,0,0,9.71,3.56A46.37,46.37,0,0,0,69.19,34" transform="translate(-22.83 -33.96)" style="fill:#5aa244"/><path d="M99.06,100.9A36.27,36.27,0,1,1,43.83,54.38c-2-2.89-3.75-5.81-5.4-8.74a46.36,46.36,0,1,0,70.34,58.82,96.36,96.36,0,0,1-9.71-3.56" transform="translate(-22.83 -33.96)" style="fill:#93af53"/><path d="M66.37,79.72q-3.58-3.12-6.85-6.4H47.59a3.52,3.52,0,0,0-3.21,3.74v6.57a3.5,3.5,0,0,0,3.21,3.67H62.25v14.59a3.45,3.45,0,0,0,3.67,3.21h6.57a3.44,3.44,0,0,0,3.67-3.21V87.49q-5-3.6-9.78-7.78" transform="translate(-22.83 -33.96)" style="fill:#93af53"/></g><path d="M137.29,56.74H150a34.24,34.24,0,0,1,8.49.92,15.62,15.62,0,0,1,6.43,3.44q7.51,6.43,7.51,19.55a38.35,38.35,0,0,1-.75,7.9A23.36,23.36,0,0,1,169.34,95a20,20,0,0,1-4,5.13,16.68,16.68,0,0,1-4.23,2.79,19.11,19.11,0,0,1-4.94,1.48,37.47,37.47,0,0,1-6,.43H137.49a7.94,7.94,0,0,1-4-.8,3.73,3.73,0,0,1-1.75-2.26,14.37,14.37,0,0,1-.41-3.79V62.71q0-3.15,1.41-4.56T137.29,56.74Zm3.77,7.71V97.08h7.38q2.43,0,3.8-.13a11.87,11.87,0,0,0,2.85-.66,7.76,7.76,0,0,0,2.56-1.48q4.89-4.13,4.89-14.23,0-7.12-2.15-10.66a9.57,9.57,0,0,0-5.3-4.51,26.15,26.15,0,0,0-7.61-1Z" transform="translate(-22.83 -33.96)" style="fill:#929496"/><path d="M202.14,55.92A25.68,25.68,0,0,1,215,59a19.67,19.67,0,0,1,8.12,8.63,29.4,29.4,0,0,1,2.75,13.14,32.12,32.12,0,0,1-1.51,10.13,21.92,21.92,0,0,1-4.53,7.91,19.78,19.78,0,0,1-7.41,5.12,29.22,29.22,0,0,1-20.17,0,20,20,0,0,1-7.45-5.13,21.92,21.92,0,0,1-4.51-8,32.18,32.18,0,0,1-1.52-10.07,31.07,31.07,0,0,1,1.59-10.17,21.8,21.8,0,0,1,4.61-7.87,19.93,19.93,0,0,1,7.35-5A26.45,26.45,0,0,1,202.14,55.92ZM216,80.65a22.57,22.57,0,0,0-1.71-9.15,12.74,12.74,0,0,0-4.87-5.85,13.39,13.39,0,0,0-7.27-2,13.15,13.15,0,0,0-5.4,1.1,11.86,11.86,0,0,0-4.26,3.2,15.28,15.28,0,0,0-2.82,5.36,24.25,24.25,0,0,0-1,7.33,24.85,24.85,0,0,0,1,7.41,15.19,15.19,0,0,0,2.92,5.49,12.25,12.25,0,0,0,4.33,3.26A13.68,13.68,0,0,0,209.14,96a12.92,12.92,0,0,0,5-5.77A22.32,22.32,0,0,0,216,80.65Z" transform="translate(-22.83 -33.96)" style="fill:#929496"/><path d="M240.22,56.74h12.69a34.24,34.24,0,0,1,8.5.92,15.62,15.62,0,0,1,6.43,3.44q7.51,6.43,7.51,19.55a38.41,38.41,0,0,1-.75,7.9A23.36,23.36,0,0,1,272.26,95a20,20,0,0,1-4,5.13,16.68,16.68,0,0,1-4.23,2.79,19.1,19.1,0,0,1-4.94,1.48,37.48,37.48,0,0,1-6,.43H240.41a7.93,7.93,0,0,1-4-.8,3.73,3.73,0,0,1-1.75-2.26,14.37,14.37,0,0,1-.41-3.79V62.71q0-3.15,1.41-4.56T240.22,56.74ZM244,64.45V97.08h7.38q2.43,0,3.8-.13A11.88,11.88,0,0,0,258,96.3a7.75,7.75,0,0,0,2.56-1.48q4.89-4.13,4.89-14.23,0-7.12-2.15-10.66a9.57,9.57,0,0,0-5.3-4.51,26.15,26.15,0,0,0-7.61-1Z" transform="translate(-22.83 -33.96)" style="fill:#929496"/><path d="M305.06,55.92a25.68,25.68,0,0,1,12.84,3A19.67,19.67,0,0,1,326,67.58a29.4,29.4,0,0,1,2.75,13.14,32.12,32.12,0,0,1-1.51,10.13,21.92,21.92,0,0,1-4.53,7.91,19.78,19.78,0,0,1-7.41,5.12,29.22,29.22,0,0,1-20.17,0,20,20,0,0,1-7.45-5.13,21.91,21.91,0,0,1-4.51-8,32.15,32.15,0,0,1-1.53-10.07,31.09,31.09,0,0,1,1.59-10.17,21.8,21.8,0,0,1,4.61-7.87,19.92,19.92,0,0,1,7.35-5A26.45,26.45,0,0,1,305.06,55.92ZM318.9,80.65a22.57,22.57,0,0,0-1.71-9.15,12.74,12.74,0,0,0-4.87-5.85,13.39,13.39,0,0,0-7.26-2,13.15,13.15,0,0,0-5.4,1.1A11.86,11.86,0,0,0,295.4,68a15.28,15.28,0,0,0-2.82,5.36,24.25,24.25,0,0,0-1,7.33,24.85,24.85,0,0,0,1,7.41,15.22,15.22,0,0,0,2.92,5.49,12.25,12.25,0,0,0,4.33,3.26A13.68,13.68,0,0,0,312.06,96a12.92,12.92,0,0,0,5-5.77A22.32,22.32,0,0,0,318.9,80.65Z" transform="translate(-22.83 -33.96)" style="fill:#929496"/><path d="M378.07,89.64a12.83,12.83,0,0,1-1.13,5,18,18,0,0,1-3.56,5.25,18.16,18.16,0,0,1-6.2,4.18,22.29,22.29,0,0,1-8.79,1.61,30.75,30.75,0,0,1-6.92-.72,19.42,19.42,0,0,1-5.66-2.25,19.06,19.06,0,0,1-4.67-4,23.87,23.87,0,0,1-3.25-5.07,26.39,26.39,0,0,1-2-6,32.62,32.62,0,0,1-.67-6.76,30,30,0,0,1,1.69-10.4,22.19,22.19,0,0,1,4.84-7.86,21.12,21.12,0,0,1,7.38-5,23.9,23.9,0,0,1,9-1.71,22.54,22.54,0,0,1,10.4,2.33,18.83,18.83,0,0,1,7,5.76,11.36,11.36,0,0,1,2.43,6.48,4.22,4.22,0,0,1-1.18,3,3.74,3.74,0,0,1-2.85,1.28,3.94,3.94,0,0,1-2.8-.89A12.23,12.23,0,0,1,369,70.78a14.67,14.67,0,0,0-4.48-5.35,10.93,10.93,0,0,0-6.35-1.77,11.5,11.5,0,0,0-9.56,4.56q-3.56,4.56-3.56,13a24.06,24.06,0,0,0,1.57,9.33,11.78,11.78,0,0,0,4.46,5.56,12.31,12.31,0,0,0,6.76,1.84,11.86,11.86,0,0,0,7.1-2.08,12.58,12.58,0,0,0,4.38-6.12,10.39,10.39,0,0,1,1.54-3.1,3.49,3.49,0,0,1,3-1.2,4.13,4.13,0,0,1,3,1.21A4,4,0,0,1,378.07,89.64Z" transform="translate(-22.83 -33.96)" style="fill:#929496"/></svg>